<svg width="79" height="24" viewBox="0 0 79 24" fill="none" xmlns="http://www.w3.org/2000/svg">
<path fill-rule="evenodd" clip-rule="evenodd" d="M4.93736 10.5236L4.93538 11.2057H7.91674C8.51509 11.2057 9.00043 11.6796 9.00043 12.2638V14.225C9.00043 14.8092 8.51509 15.283 7.91674 15.283H4.93538V21.7759C4.93538 22.3603 4.45005 22.8339 3.85169 22.8339H1.08369C0.485055 22.8339 0 22.3603 0 21.7759V10.4644H0.00197291C0.0295937 5.09818 3.73388 0.663695 8.50325 0.0101492C9.14924 -0.0784579 9.72308 0.424841 9.72308 1.06188V3.95537C9.72308 4.45784 9.35865 4.88079 8.85641 4.98921C6.62983 5.47022 4.93736 7.76877 4.93736 10.5236ZM69.2793 13.8122H69.2769V21.7787C69.2769 22.3671 69.7823 22.8444 70.4057 22.8444H73.2641C73.8966 22.8444 74.4055 22.3536 74.3926 21.7566L74.2189 13.8122H74.2183C74.2588 11.287 75.9121 9.18756 78.0893 8.72277C78.6152 8.61052 79 8.18758 79 7.67845V5.10977C79 4.46344 78.3945 3.9593 77.7171 4.05076C72.9897 4.69071 69.3248 8.81728 69.2793 13.8122ZM62.1984 11.9798C62.0431 10.3787 60.5287 8.81456 58.4706 8.81456C56.3735 8.81456 54.6651 10.3414 54.4319 11.9798H62.1984ZM66.3025 19.599C66.7528 20.0305 66.7337 20.7377 66.2601 21.1452C64.4297 22.7198 61.8593 23.579 59.3471 23.579C53.7162 23.579 49.4835 19.8553 49.4835 14.1957C49.4835 9.16832 53.056 4.77455 58.648 4.77455C63.8517 4.77455 67.5407 8.98227 67.5407 14.0091C67.5407 14.131 67.5381 14.2532 67.5332 14.374C67.5101 14.9415 67.0171 15.3869 66.425 15.3869H54.3764C54.6483 17.9188 56.7842 19.6692 59.4636 19.6692C61.1256 19.6692 62.5287 18.9701 63.4905 18.2215C63.9252 17.8831 64.5597 17.9277 64.9556 18.3075L66.3025 19.599ZM44.2522 5.40433L39.4131 15.8413L34.5743 5.40433C34.3965 5.0213 34.0032 4.77455 33.5696 4.77455H30.7926C29.9895 4.77455 29.4565 5.58086 29.7922 6.2878L37.3822 22.2859C37.5621 22.6645 37.9527 22.9074 38.3829 22.9074H40.4433C40.8735 22.9074 41.2644 22.6645 41.444 22.2859L49.0343 6.2878C49.3697 5.58086 48.8367 4.77455 48.0336 4.77455H45.2566C44.823 4.77455 44.4298 5.0213 44.2522 5.40433ZM24.5148 11.9798C24.3595 10.3787 22.8451 8.81456 20.7869 8.81456C18.6899 8.81456 16.9812 10.3414 16.7483 11.9798H24.5148ZM28.3505 19.3417C28.9651 19.931 28.9092 20.9013 28.2331 21.4255C26.4327 22.8215 24.0226 23.579 21.6632 23.579C16.0326 23.579 11.7999 19.8553 11.7999 14.1957C11.7999 9.16832 15.3724 4.77455 20.9644 4.77455C26.1678 4.77455 29.8571 8.98227 29.8571 14.0091C29.8571 14.131 29.8545 14.2532 29.8496 14.3743C29.8265 14.9415 29.3335 15.3869 28.7414 15.3869H16.6928C16.9647 17.9188 19.1003 19.6692 21.78 19.6692C23.3053 19.6692 24.613 19.0801 25.5612 18.4042C26.1528 17.9829 26.9701 18.018 27.4913 18.5179L28.3505 19.3417Z" fill="#06232C"/>
</svg>
